<svg xmlns="http://www.w3.org/2000/svg" xml:space="preserve" style="fill-rule:evenodd;clip-rule:evenodd;stroke-linejoin:round;stroke-miterlimit:2" viewBox="0 0 192 199"><path d="M38.4 108.1h6.2v-7.9h-6.2v8Zm-21 51.9c9 11.8 24.8 9.1 24.8 9.1 1.9-16.8-5-22.3-5-22.3-4.2 9 2.2 19.8 2.2 19.8-9.6-9-22-6.6-22-6.6Zm16.3-92.4-3-2.8A27.6 27.6 0 0 0 18.1 73a27 27 0 0 0 0-20L16 51.3c-6.3 12 .7 25.3.7 25.3a32 32 0 0 0 17.1-9Zm20.5 109.8c-.3-5.2-1.3-9-2.5-12h-6c1.6 5.7 5.3 10 5.3 10-11-7.1-22.9-2.7-22.9-2.7 11 10.1 26 4.7 26 4.7ZM76.4 107v3h-3.3v3.6h3v3h-3v3.7h3.3v3H70V107l-4.5 16.3h-2.6L58 107h3.4l2 7.8.5 2.8c.3-1 .3-1.9.6-2.8l2-7.8h9.8Zm4 36.1H77l-.6-2.7h-3.3l-.5 2.7h-3.2l3.7-16.3h3.4l4 16.3Zm-3.3-36h3.2c2 0 5.7.1 5.7 4.6 0 1.8-.7 3.3-2.3 4.2l2.8 7.4h-3.4l-2.8-7.5v7.5H77V107Zm10 0h3.3v16.2h-3.2V107Zm-2.3 36.3c-1 0-2-.3-2.8-.8v-3c.8.4 1.5.8 2.5.8s1.8-.7 1.8-1.8c0-1.3-1-1.7-1.9-2.4-1.8-1.2-3-2.4-3-4.8 0-2.6 1.5-4.8 4.3-4.8 1 0 2 .3 2.8.8v3.1c-.6-.5-1.4-1-2.3-1-1 0-1.6.6-1.6 1.6 0 2.7 4.9 2.8 4.9 7.2 0 3-1.7 5.1-4.7 5.1Zm-16-13.5h-2.6V143H63v-13h-2.5v-3h8.3v3ZM52.7 88.2v68.5h34c3.8.1 7.8 3.2 7.8 3.2V105c-20.6-.4-24.8-16.8-24.8-16.8h-17Zm78.8-35.4-10.1 11v17.7s-.3 3-.9 4.4h6.6l18.7-18.7-14.3-14.4Zm-93 92.6h6.3v-7.9h-6.2v8ZM55 61l13 12.9v-10L55 50.8V61ZM44.7 171.3a1.5 1.5 0 1 0 0-3 1.5 1.5 0 0 0 0 3ZM20.9 65.8a1.5 1.5 0 1 0 3 0 1.5 1.5 0 0 0-3 0Zm23.8 94.7c.1.7.2-.1.2-.1v-9.7l-1.6 1.8c1 2.4 1.3 6 1.4 8Zm23.4-81.7v-2L58.4 67H35.8l12.8 11.7H68ZM19 51.3s-1-5.3 4.6-13.2H5s.8 2.2 14 13.2Zm-16.2 29c-3.3 14.5 9 25 9 25 14.1-9.4 13.9-18.1 13.9-18.1C16 89.6 12 101.5 12 101.5c.6-13.1-9.2-21.2-9.2-21.2Zm11 6.7c2.9-12.7-5.3-22.4-5.3-22.4-5.8 13.7 4.4 26 4.4 26C28.5 84 29.8 75.4 29.8 75.4c-9.9.8-16 11.7-16 11.7Zm1.3 6.1a1.5 1.5 0 1 0-3 0 1.5 1.5 0 0 0 3 0Zm75.7 75h9.8s.6-4.3 3.4-4.3h40.4V92.6l-4-4.2V159h-36.2s-4.9.4-8.7 5c0 0-3-4.4-9.3-4.8H50.8V89l-4.4 4.4v70.4H86s4.8.2 4.8 4.3ZM27.4 37.2c-10.1 11-4.7 26-4.7 26 16.9-1 21-8.6 21-8.6-9.5-2.6-19 5.6-19 5.6 7.1-11 2.7-23 2.7-23Zm47.7 96.3-.4-2.5-.4 2.5-.6 4.3h2.2l-.8-4.3Zm93.5 30.6c2.5-1.5 4.8-3.6 6.8-6.4 0 0-5.4-.7-11.7 1.4l5 5ZM179 99.5s-4.4-11.7-14-14c0 0 0 8.8 14.3 17.8 0 0 12-10.7 8.3-25.2 0 0-9.5 8.4-8.6 21.4Zm-18 35s-5.6 6.8-.4 22.9c0 0 16-.5 22.5-13.9 0 0-12.7.2-20.4 10.8 0 0 4.2-11.8-1.7-19.7Zm17.6-20.4s-2.3-12.3-11.4-16.2c0 0-1.5 8.6 11 20 0 0 13.7-8.5 12.6-23.4 0 0-10.8 6.6-12.2 19.6Zm-11.3-3.7s-3 8.2 7.4 21.6c0 0 15-6 16.4-20.8 0 0-11.8 4.6-15.4 17.2 0 0-.1-12.6-8.4-18Zm9.5 11a1.5 1.5 0 1 0 0-3 1.5 1.5 0 0 0 0 3Zm-8.6 25.3a1.5 1.5 0 1 0-3 0 1.5 1.5 0 0 0 3 0ZM42.9 58.6c-.5.4-4.7 4.2-11 5l2.2 2 22.4-.2-7-7-3.4-3.4s-2.5 3.1-3.2 3.6Zm86.8 72.5-.4 2.5-.7 4.3h2.2l-.8-4.3-.3-2.5Zm-46.8-19.4c0-1.2-.6-2.1-2.2-2h-.4v4.3h.5c1.5 0 2-1 2-2.3Zm31.8 9c1.6 0 1.6-1.1 1.6-2.4v-11.2h3.2V119c0 1.7-.2 4.7-4.8 4.7-3 0-4.8-1.4-4.8-4.5v-12h3.2v10.5c0 1.2-.1 3 1.6 3Zm8.3 6.3v3h-3.3v3.5h3v3h-3v3.7h3.3v3h-6.5V127h6.5Zm-.9-19.9h3.6l1 2.3.8 2.5.7-2.5 1-2.3h3.5l-3.5 7.9 3.7 8.4h-3.7l-1-2.6-.7-2.4-.8 2.4-1 2.6h-3.6l3.5-8.4-3.5-7.9Zm9.8 36.1-.6-2.7h-3.2l-.6 2.7h-3.2L128 127h3.4l3.9 16.2h-3.5Zm-20.6 0-.8-11.7-.5 4-1.4 7.7H106l-1.6-7.8-.5-3.6v-.3l-.5 11.7H100l1.4-16.2h4.3l1.5 9.6 1.4-9.6h4.3l1.7 16.2h-3.3Zm-10.4-36h3.2v13.2h3.4v3h-6.6v-16.3Zm-4.2-2.6v55.3s3.2-3.2 7.5-3.2h34.3V88.2H120s-5.2 16.2-23.3 16.4ZM53 49s-1.5 2.1-7 3.3l7 6.5V49Zm29.4-6.5v-7.3H105v10.4h7.5v7.5h-7.2v3.3h7.2v8.1h-7.2v24.3H99l-8.6-8.6-7.9 8-5.7-5.8 13-13 6.8 6.7V42.5H82.4ZM70.8 77.3c0 17.3 10.8 25.3 24.1 25.3s24.2-8 24.2-25.3V28.2H70.8v49.1ZM50 80.6l5.8 5.1h13c-.6-1-.4-5-.4-5H50Zm104.7 65s-1 1.1-1.4 2.8l3.1 3.2c-.2-2-.7-4-1.7-6Zm-123 13.3c4.8-16.3-1-22.8-1-22.8-5.7 8-1.3 19.8-1.3 19.8-8-10.4-20.6-10.4-20.6-10.4 6.8 13.3 22.9 13.4 22.9 13.4ZM31 51.3c16.8 1.9 22.2-5 22.2-5-8.9-4.2-19.7 2.2-19.7 2.2 9-9.6 6.6-22 6.6-22-11.9 9-9.1 24.8-9.1 24.8Zm35.2 119c.8 9.9 11.7 16 11.7 16a27.8 27.8 0 0 0-22.4 5.3c13.7 5.8 26-4.4 26-4.4-6.7-15.6-15.3-16.9-15.3-16.9ZM23.3 147c7.6-15.2 3-22.6 3-22.6-7 7-4.7 19.3-4.7 19.3-6-11.7-18.5-13.8-18.5-13.8C7.5 144 23.3 147 23.3 147Zm34 18.4h-2.1C55 174.7 64 182 64 182c-12-5-23 1.3-23 1.3 12.5 8.1 26.4.2 26.4.2-2.7-11.3-7.4-16.2-10.1-18.1Zm-31.2 7s2.3-1.4 5.6-1.9l-3.7-.8-.3.4.3-.4L11.6 187s-1.9 2.7-.1 4.4c0 0 1.6 1.4 4-.2l16-14c-1.7-.8-5.2-3.8-5.4-4.8Zm-9-38.6c10-13.6 6.8-21.7 6.8-21.7-8 5.6-8 18.1-8 18.1C12.2 117.7.2 113.4.2 113.4c1.9 14.9 17 20.4 17 20.4Zm8.4-97.4L6 16.9s-8 5.8-1.8 19.5h21.3Zm8.8-7.1L22.8 17.7c-7-7-15.5-2.4-15.5-2.4L30 37.8c1.5-5.8 4.4-8.5 4.4-8.5Zm-21.1 92.5a1.5 1.5 0 1 0 3 0 1.5 1.5 0 0 0-3 0Zm0-2C25.4 108 23.7 99.5 23.7 99.5c-9 4.2-11 16.5-11 16.5C11.1 103 0 96.8 0 96.8c-.7 14.9 13.2 23 13.2 23Zm10.7 28.6a1.5 1.5 0 1 0 3 0 1.5 1.5 0 0 0-3 0ZM148 170a1.5 1.5 0 1 0 0-3 1.5 1.5 0 0 0 0 3Zm7.8-1.9-5.2-4.2.5 4.2s1.9.2 4.7 0Zm14.6-26.2s2-12.4-5.2-19.1c0 0-4.4 7.5 3.6 22.5 0 0 15.7-3.2 19.7-17.6 0 0-12.4 2.4-18.1 14.2Zm-98.8 41.3a1.5 1.5 0 1 0-3 0 1.5 1.5 0 0 0 3 0Zm70-8.9s3.3-3.8 4.9-9.2l-6-.1c-1 3-1.7 6.7-1.9 11.4 0 0 13 4.3 23.4-3.2l-4-3.2a26 26 0 0 0-16.3 4.3Zm4.5-24v7.9l35.3 29.3h7l-35.9-37.2H146Zm-51.8 34v3.8c-1.7-2.7-8.3-12.5-15.8-13 0 0 2.5 8.8 13.8 13.9 0 0-14.1 1-19.9 8.6 0 0 12.3 1.2 22-8.4v6H98v-10.8h-3.8Zm6.3 4.6a24.7 24.7 0 0 0 13.7-13.9c-8.7.6-16.2 13.7-16.2 13.7 9.7 10 22.4 8.8 22.4 8.8-5.8-7.7-20-8.6-20-8.6Zm14.5-3s10.8-6.4 11.3-16.3c0 0-8.6 1.5-15 17.2 0 0 12.6 10 26.2 3.9 0 0-9.8-8-22.5-4.8Zm13.8-4.7s8.4-7.2 8.4-16.1h-3a31.4 31.4 0 0 0-8.8 17.7s14.1 7.6 26.4-.7c0 0-11-6.2-23-.9Zm-7.4 1.5a1.5 1.5 0 1 0 3 0 1.5 1.5 0 0 0-3 0Zm52.3-108s7.6-14.1-.8-26.5c0 0-6.1 11.1-.8 23.1 0 0-8.1-9.5-18-8.4 0 0 3 8.3 19.6 11.8Zm-36-33 4.5-4.7c-3.8-.9-11-2.1-16.7 2.2 0 0 3 3.4 12.3 2.5Zm29.9 24a1.5 1.5 0 1 0 0-3 1.5 1.5 0 0 0 0 3Zm10.1 23s10-12.5 3.8-26.2c0 0-8 10-4.7 22.6 0 0-6.4-10.8-16.3-11.3 0 0 1.5 8.6 17.2 15Zm-21.6-70.9a9.1 9.1 0 0 0 8.5-.1c5.2-2.5 9 1 9 1 3.5 2.8 3 6.6 3 6.6 0 2.8-.9 3-.9 3-1.7 1.2-1.3-.8-1.3-.8l.4-1.4c.7-6.5-5-7.4-5-7.4-6.2-1-7.8 4.6-7.8 4.6-.3 1.6-.4 3-.2 4.2l-7.7-7.7.4 6.5 17.1 17.1h6.2l-6.3-6.2c3.3 1 6.2 1.1 6.2 1.1 8.8-.5 9.7-8.9 9.7-8.9 2.3-8.7-6-15.8-6-15.8-5.5-4.7-14-5.1-14-5.1-11.8-1.4-16-9-16-9-1.4 3.5-1 8.6-1 8.6.7 7.9 5.7 9.7 5.7 9.7Zm19.5 73.4a1.5 1.5 0 1 0 3 0 1.5 1.5 0 0 0-3 0ZM143 35.9l3.6-3.7a23.2 23.2 0 0 0-12.3-15.1s-.3 11 8.7 18.8Zm2.9 110.3h6.2v-8H146v8ZM157 60c2.8.7 6.2 1.3 10.3 1.5 0 0 1.9-5.6 1-12.4l-5.3 5.2a25 25 0 0 0 2.2 4.1s-1.5-1.2-3.9-2.6L157 60ZM38.8 43.2a1.5 1.5 0 1 0 3 0 1.5 1.5 0 0 0-3 0ZM169 45l-16-16-14.3 15.6 15.4 15.1L169 45Zm-34 .5-3.2 3.8 17.5 17.5 3.5-3.5-17.7-17.8Zm10.7 62h6.2v-7.9h-6.2v8ZM77.2 24.2s5 3.3 13.5-2.7c0 0-10.6-4.3-13.5 2.7Zm55.6 5.6s-4.8-1.4-11 .7V36c3.8 0 7.5-1 14.4-4.6 0 0-3.3-15.7-17.6-19.7 0 0 2.4 12.4 14.2 18.1Zm-64.3 7 .1-5.4c-6-1.8-12.2-.7-12.2-.7 11.7-6 13.8-18.5 13.8-18.5C56 16.6 53.1 32.4 53.1 32.4a36.7 36.7 0 0 0 15.4 4.4ZM64 39.9c-8-5.7-19.8-1.3-19.8-1.3C54.6 30.6 54.6 18 54.6 18c-13.3 6.8-13.4 23-13.4 23C57.4 45.8 64 40 64 40ZM63 28a1.5 1.5 0 1 0 3 0 1.5 1.5 0 0 0-3 0Zm3.7-1.6 11.1-.1c-3.4-2.1-7.2-2-7.2-2 12.5-4 16-15 16-15C71.8 11 66.3 26.1 66.3 26.1l.4.2Zm59.6.8a1.5 1.5 0 1 0-3 0 1.5 1.5 0 0 0 3 0Zm-7.8-3s-3.8 0-7.3 2l11.2.2.4-.2s-5.6-15.1-20.4-17a25 25 0 0 0 16 15Zm-24-1.6a2 2 0 1 0 0-4 2 2 0 0 0 0 4Zm17.3 1c-3.1-7-13.6-2.2-13.6-2.2 8.8 5.6 13.6 2.2 13.6 2.2" style="fill:#183889;fill-rule:nonzero" transform="translate(0 .5)"/></svg>